<?xml version="1.0" encoding="UTF-8"?>
<svg id="Layer_1" xmlns="http://www.w3.org/2000/svg" version="1.1" viewBox="0 0 990.99 88.41">
  <!-- Generator: Adobe Illustrator 29.3.1, SVG Export Plug-In . SVG Version: 2.1.0 Build 151)  -->
  <g>
    <g>
      <path d="M121.6,70.35c-1.85,3.54-4.62,7.39-7.85,10.32-5.86,5.24-13.09,7.86-21.26,7.86-15.4,0-31.58-9.71-31.58-33.43,0-19.1,11.71-33.89,30.96-33.89,12.48,0,20.33,6.16,24.18,11.71,4.01,5.7,6.32,15.56,6.01,24.03h-49.75c.15,13.25,9.24,21.72,20.33,21.72,5.24,0,9.4-1.54,13.09-4.62,2.93-2.46,5.24-5.7,6.62-8.78l9.24,5.08ZM110.66,47.71c-1.85-10.01-9.4-16.64-18.79-16.64s-17.1,7.09-18.79,16.64h37.58Z"/>
      <path d="M150.4,32.92v53.76h-11.09v-53.76h-6.78v-10.17h6.78V.19h11.09v22.56h11.09v10.17h-11.09Z"/>
      <path d="M171.97,22.75h11.09v6.93c1.08-1.69,5.85-8.47,14.48-8.47,3.39,0,7.08,1.23,9.86,2.62l-5.24,10.01c-2.46-1.7-4.78-2.16-6.47-2.16-4.47,0-7.24,1.85-8.93,4-1.85,2.46-3.7,6.78-3.7,17.25v33.73h-11.09V22.75Z"/>
      <path d="M263.32,22.75h11.09v63.93h-11.09v-8.93c-3.7,4.78-10.63,10.78-21.87,10.78-16.17,0-31.11-11.4-31.11-33.89s14.79-33.43,31.11-33.43c12.32,0,18.95,6.78,21.87,10.63v-9.09ZM221.72,54.64c0,13.71,7.7,24.03,20.95,24.03s21.26-11.25,21.26-23.88c0-16.48-11.4-23.72-21.26-23.72-10.94,0-20.95,8.01-20.95,23.57Z"/>
    </g>
    <path d="M51.45,86.68h-11.09v-33.43c0-4.62-.31-12.17-4.62-17.25-3.23-3.85-7.39-4.93-11.25-4.93-4.93,0-8.32,1.85-10.47,4.62-2.62,3.39-2.93,7.86-2.93,11.71v14.88H0v-15.18c0-7.09.46-12.32,3.7-17.1,3.85-5.7,10.78-8.78,18.33-8.78,10.63,0,16.33,6.32,18.33,8.94V.19h11.09v86.48Z"/>
    <rect x="40.36" y=".05" width="88.96" height="2.44"/>
    <rect x="160.95" y=".05" width="113.46" height="2.44"/>
  </g>
  <g>
    <path d="M315.58,70.87c-1.2,3.24-1.64,5.52-1.31,6.84.33,1.33,1.04,1.99,2.12,1.99.7,0,1.44-.22,2.21-.65.77-.44,1.69-1.19,2.77-2.27.7-.62,1.29-1.02,1.74-1.18.46-.17.89-.15,1.31.06.5.25.74.7.72,1.34-.02.64-.26,1.44-.72,2.4-1.49,2.74-3.64,4.91-6.44,6.53s-5.88,2.43-9.24,2.43c-2.57,0-4.52-.59-5.85-1.77-1.33-1.18-2.01-2.89-2.05-5.13-.04-2.24.52-4.96,1.68-8.15l10.08-26.94c1.2-3.24,1.64-5.52,1.31-6.84-.33-1.33-1.06-1.99-2.18-1.99-.66,0-1.38.22-2.15.65-.77.44-1.71,1.19-2.83,2.27-.71.58-1.29.96-1.74,1.15-.46.19-.89.18-1.31-.03-.5-.25-.74-.69-.71-1.34.02-.64.28-1.44.78-2.4,1.45-2.7,3.56-4.86,6.32-6.5,2.76-1.64,5.82-2.46,9.18-2.46,2.4,0,4.27.58,5.6,1.74,1.33,1.16,2.05,2.89,2.18,5.2.12,2.3-.44,5.13-1.68,8.49l-9.77,26.57ZM323.85,16.99c-2.7,0-4.75-.74-6.16-2.21-1.41-1.47-1.99-3.24-1.74-5.32.17-1.66.77-3.17,1.8-4.54,1.04-1.37,2.4-2.47,4.11-3.3,1.7-.83,3.63-1.24,5.79-1.24,2.82,0,4.88.74,6.19,2.21,1.31,1.47,1.81,3.27,1.52,5.38-.12,1.66-.71,3.17-1.77,4.54-1.06,1.37-2.42,2.46-4.07,3.27-1.66.81-3.55,1.21-5.66,1.21Z"/>
    <path d="M345.69,68.44v-18.67h6.22v-18.67h-6.22v-6.22h18.67v18.67h6.22v6.22h-6.22v6.22h-6.22v12.44h-6.22v18.67h-12.44v-18.67h6.22ZM345.69,31.11v6.22h-6.22v-6.22h6.22ZM376.8,37.33v6.22h-6.22v-6.22h6.22ZM383.02,31.11v6.22h-6.22v-6.22h6.22ZM389.25,68.44v-18.67h6.22v-12.44h-6.22v-6.22h-6.22v-6.22h18.67v6.22h6.22v18.67h-6.22v18.67h-6.22v12.44h6.22v6.22h-18.67v-18.67h6.22ZM407.91,74.66v6.22h-6.22v-6.22h6.22Z"/>
    <path d="M426.57,68.44v-18.67h6.22v-18.67h-12.44v-6.22h18.67V6.22h12.44v18.67h12.44v6.22h-18.67v24.89h-6.22v12.44h-6.22v12.44h6.22v6.22h-18.67v-18.67h6.22ZM445.24,74.66v6.22h-6.22v-6.22h6.22Z"/>
    <path d="M475.16,61.41c3.07-1.16,5.86-2.21,8.37-3.14,2.51-.93,5.2-1.94,8.09-3.02,2.88-1.08,5.7-2.15,8.46-3.2s5.17-1.98,7.25-2.77l-1.43,1.99c.33-1.04.58-2.2.75-3.48.17-1.29.27-2.8.31-4.54,0-2.78-.6-5.07-1.8-6.87-1.2-1.8-2.8-2.71-4.79-2.71s-3.97.74-6.07,2.21c-2.1,1.47-4.06,3.52-5.88,6.13-1.83,2.61-3.36,5.66-4.6,9.15-1.24,3.48-2.01,7.24-2.3,11.26-.42,6.1.54,10.67,2.86,13.72s5.62,4.57,9.89,4.57c2.57,0,5.06-.49,7.47-1.46,2.4-.97,4.57-2.4,6.5-4.26,1.93-1.87,3.41-4.13,4.45-6.78.62-.91,1.17-1.53,1.65-1.87.48-.33.98-.5,1.52-.5.7.04,1.25.34,1.65.9.39.56.43,1.48.09,2.77-.58,3.19-2.07,6.23-4.48,9.11-2.41,2.88-5.65,5.24-9.74,7.06-4.09,1.83-8.95,2.74-14.59,2.74-4.81,0-8.79-.9-11.95-2.71-3.15-1.8-5.43-4.38-6.84-7.71-1.41-3.34-1.97-7.33-1.68-11.98.33-4.98,1.48-9.71,3.45-14.19,1.97-4.48,4.56-8.44,7.78-11.88,3.21-3.44,6.84-6.16,10.89-8.15,4.04-1.99,8.28-2.99,12.72-2.99,3.28,0,6.02.64,8.24,1.93,2.22,1.29,3.91,3.01,5.07,5.16,1.16,2.16,1.84,4.56,2.05,7.22.04.62.22,1.14.53,1.56.31.42.72.62,1.21.62.62-.04,1.08.07,1.37.34.29.27.44.67.44,1.21,0,.62-.28,1.21-.84,1.77s-1.63,1.13-3.2,1.71c-1.7.58-3.91,1.36-6.63,2.33-2.72.98-5.66,2.04-8.83,3.2-3.17,1.16-6.35,2.31-9.52,3.45-3.17,1.14-6.07,2.18-8.68,3.11-2.61.93-5.52,1.98-8.71,3.14l-.5-4.17Z"/>
    <path d="M537.01,68.44v-18.67h6.22v-18.67h-6.22v-6.22h18.67v12.44h6.22v6.22h-6.22v12.44h-6.22v12.44h-6.22v18.67h-12.44v-18.67h6.22ZM537.01,31.11v6.22h-6.22v-6.22h6.22ZM568.11,31.11v6.22h-6.22v-6.22h6.22ZM580.56,24.89v6.22h6.22v12.44h-12.44v-12.44h-6.22v-6.22h12.44Z"/>
    <path d="M586.78,80.88v-24.89h6.22v-12.44h6.22v-6.22h12.44v6.22h-6.22v12.44h-6.22v18.67h6.22v6.22h12.44v6.22h-24.89v-6.22h-6.22ZM624.11,31.11v6.22h-12.44v-6.22h12.44ZM624.11,74.66v6.22h-6.22v-6.22h6.22ZM630.33,68.44v-6.22h6.22v-12.44h6.22v-18.67h-18.67v-6.22h31.11v24.89h-6.22v18.67h-6.22v12.44h6.22v6.22h-18.67v-12.44h-6.22v-6.22h6.22ZM655.22,74.66v6.22h-6.22v-6.22h6.22Z"/>
    <path d="M699.14,33.85c-2.82,0-5.58,1.05-8.27,3.14-2.7,2.09-5.04,4.98-7.03,8.65s-3.32,7.89-3.98,12.66c-1.04,7.38-.52,12.94,1.56,16.67,2.07,3.73,5.29,5.58,9.64,5.54,2.07-.04,4.14-.5,6.19-1.37,2.05-.87,3.92-2.18,5.6-3.92s3-3.86,3.95-6.35c.66-.95,1.23-1.67,1.71-2.15.48-.48,1.05-.69,1.71-.65.66,0,1.16.31,1.49.93.33.62.35,1.56.06,2.8-.33,1.99-1.12,4.07-2.36,6.22-1.24,2.16-2.96,4.18-5.13,6.07-2.18,1.89-4.81,3.41-7.9,4.57-3.09,1.16-6.63,1.74-10.61,1.74-7.72,0-13.28-2.54-16.71-7.62-3.42-5.08-4.39-11.94-2.89-20.56.75-4.4,2.12-8.49,4.14-12.29,2.01-3.8,4.55-7.12,7.62-9.99,3.07-2.86,6.56-5.1,10.48-6.72,3.92-1.62,8.14-2.43,12.66-2.43,3.61,0,6.61.64,9.02,1.93,2.4,1.29,4.19,2.96,5.35,5.01,1.16,2.05,1.7,4.3,1.62,6.75-.08,2.7-.89,4.76-2.43,6.19-1.53,1.43-3.24,2.15-5.1,2.15-1.7,0-3.01-.41-3.92-1.24-.91-.83-1.35-1.89-1.31-3.17,0-1.12.16-2.22.5-3.3.33-1.08.52-2.22.56-3.42,0-1.74-.55-3.15-1.65-4.23-1.1-1.08-2.62-1.62-4.57-1.62Z"/>
    <path d="M730.74,68.44v-18.67h6.22v-18.67h-12.44v-6.22h18.67V6.22h12.44v18.67h12.44v6.22h-18.67v24.89h-6.22v12.44h-6.22v12.44h6.22v6.22h-18.67v-18.67h6.22ZM749.41,74.66v6.22h-6.22v-6.22h6.22Z"/>
    <path d="M780.52,68.44v-18.67h6.22v-18.67h-6.22v-6.22h18.67v31.11h-6.22v12.44h-6.22v12.44h6.22v6.22h-18.67v-18.67h6.22ZM780.52,31.11v6.22h-6.22v-6.22h6.22ZM805.4,0v12.44h-12.44V0h12.44ZM799.18,74.66v6.22h-6.22v-6.22h6.22Z"/>
    <path d="M819.46,75.25c.17-2.22.37-4.68.62-7.37.25-2.7.49-5.46.72-8.31.23-2.84.43-5.57.59-8.18.17-2.61.25-4.91.25-6.91.04-1.99-.2-3.48-.72-4.48-.52-1-1.3-1.49-2.33-1.49-.79,0-1.49.26-2.12.78-.62.52-1.16,1.42-1.62,2.71-.46.95-.88,1.61-1.28,1.96-.39.35-.84.53-1.34.53-.62,0-1.1-.23-1.43-.68-.33-.46-.42-1.14-.25-2.05.33-1.99,1.17-3.94,2.52-5.85,1.35-1.91,3.14-3.49,5.38-4.76,2.24-1.26,4.77-1.9,7.59-1.9,3.15,0,5.33,1.02,6.53,3.05,1.2,2.03,1.8,5.16,1.8,9.39,0,1.91-.07,4.12-.22,6.63-.15,2.51-.31,5.11-.5,7.81-.19,2.7-.38,5.3-.59,7.81-.21,2.51-.37,4.77-.5,6.78-.12,2.01-.19,3.54-.19,4.57,0,1.91.23,3.25.68,4.01.46.77,1.14,1.15,2.05,1.15,1.16,0,2.58-.69,4.26-2.08,1.68-1.39,3.43-3.26,5.26-5.6,1.83-2.34,3.54-4.99,5.13-7.93,1.6-2.94,2.91-5.97,3.95-9.08,1.04-3.11,1.58-6.1,1.62-8.96.08-1.29-.04-2.27-.37-2.96-.33-.68-.99-1.48-1.99-2.4-.91-.83-1.61-1.72-2.08-2.68-.48-.95-.67-2.07-.59-3.36.08-1.87.81-3.42,2.18-4.67,1.37-1.24,3.11-1.87,5.23-1.87,2.32,0,4.14.78,5.44,2.33,1.31,1.56,1.88,3.97,1.71,7.25-.12,4.77-1,9.53-2.61,14.28-1.62,4.75-3.77,9.27-6.47,13.56-2.7,4.29-5.69,8.1-8.99,11.42-3.3,3.32-6.7,5.94-10.2,7.87-3.51,1.93-6.87,2.89-10.11,2.89-2.36,0-4.16-.62-5.38-1.87-1.22-1.24-1.84-3.24-1.84-5.97-.04-1.37.02-3.16.19-5.38Z"/>
    <path d="M872.78,74.66v-24.89h6.22v-12.44h6.22v-6.22h12.44v6.22h-6.22v12.44h-6.22v12.44h12.44v6.22h-12.44v6.22h6.22v6.22h18.67v6.22h-24.89v-6.22h-6.22v-6.22h-6.22ZM916.33,49.78v-18.67h-18.67v-6.22h24.89v6.22h6.22v18.67h-6.22v6.22h-12.44v-6.22h6.22ZM910.11,56v6.22h-12.44v-6.22h12.44ZM922.56,74.66v6.22h-12.44v-6.22h12.44ZM928.78,68.44v6.22h-6.22v-6.22h6.22Z"/>
    <path d="M934.99,80.88v-12.44h12.44v12.44h18.67v-12.44h-6.22v-12.44h-6.22v-12.44h-6.22v-12.44h6.22v-6.22h31.11v6.22h6.22v12.44h-12.44v-12.44h-18.67v12.44h6.22v12.44h6.22v12.44h6.22v12.44h-6.22v6.22h-31.11v-6.22h-6.22Z"/>
  </g>
</svg>