<svg width="727" height="115" viewBox="0 0 727 115" fill="none" xmlns="http://www.w3.org/2000/svg">
<path d="M158.032 91.3921C155.494 96.1521 152.003 100.912 147.878 104.72C140.262 111.384 130.742 114.875 120.27 114.875C100.278 114.875 79.334 102.181 79.334 71.4001C79.334 46.6482 94.5659 27.2909 119.635 27.2909C135.819 27.2909 145.974 35.2242 151.051 42.5229C156.128 49.8215 159.302 62.8322 158.984 73.6215H93.9313C94.2486 90.7574 105.99 101.864 120.27 101.864C126.934 101.864 132.646 99.9601 137.406 95.8348C141.214 92.6614 144.07 88.5361 145.974 84.4108L158.032 91.3921ZM143.752 61.8802C141.214 48.8695 131.377 40.3016 119.318 40.3016C107.259 40.3016 97.1046 49.5042 94.8833 61.8802H143.752Z" fill="#06345C"/>
<path d="M195.478 42.8399V112.653H181.198V42.8399H172.312V29.5119H181.198V0.317322H195.478V29.5119H209.758V42.8399H195.478Z" fill="#06345C"/>
<path d="M223.72 29.5123H238V38.3976C239.269 36.1762 245.616 27.2909 256.722 27.2909C261.165 27.2909 265.925 28.8776 269.416 30.7816L262.752 43.7922C259.578 41.5709 256.405 40.9362 254.184 40.9362C248.472 40.9362 244.664 43.4749 242.442 46.0135C239.904 49.1869 237.682 54.8989 237.682 68.5442V112.336H223.402V29.5123H223.72Z" fill="#06345C"/>
<path d="M342.401 29.5123H356.681V112.653H342.401V100.912C337.641 107.259 328.439 114.875 313.841 114.875C292.897 114.875 273.223 99.9601 273.223 70.7655C273.223 42.2055 292.58 27.2909 313.841 27.2909C330.025 27.2909 338.593 36.1762 342.401 41.2536V29.5123ZM288.455 71.0828C288.455 88.8534 298.609 102.181 315.745 102.181C333.516 102.181 343.353 87.5841 343.353 71.0828C343.353 49.5042 328.439 40.3016 315.745 40.3016C301.465 40.3016 288.455 50.7735 288.455 71.0828Z" fill="#06345C"/>
<path d="M66.9572 112.654H52.6772V69.179C52.6772 63.1497 52.3599 53.3124 46.6479 46.6484C42.5226 41.5711 37.1279 40.3017 32.0506 40.3017C25.7039 40.3017 21.2613 42.8404 18.4053 46.3311C14.9146 50.7737 14.5973 56.4857 14.5973 61.563V80.9203H0V61.2457C0 52.043 0.634665 45.0617 4.75999 39.0324C9.83731 31.4164 18.7226 27.6084 28.5599 27.6084C42.5226 27.6084 49.8212 35.8591 52.3599 39.3497V0.317841H66.6398V112.654H66.9572Z" fill="#06345C"/>
<path d="M168.188 0H52.3613V3.17332H168.188V0Z" fill="#06345C"/>
<path d="M356.997 0H209.438V3.17332H356.997V0Z" fill="#06345C"/>
<path d="M420.465 26.0208C414.119 26.0208 408.724 27.2901 403.964 29.8287C399.204 32.3674 395.079 36.4927 391.905 41.57L390.319 43.7914V29.1941H380.799V111.066H390.636V68.226C390.636 56.802 392.857 48.5514 396.983 43.1567C401.425 37.7621 408.089 34.9061 416.975 34.9061C424.591 34.9061 429.985 37.1274 433.793 41.2527C437.284 45.378 439.188 51.7247 439.188 60.2927V111.066H449.343V55.2153C449.343 46.0127 446.804 38.7141 441.727 33.6367C436.967 28.5594 429.668 26.0208 420.465 26.0208Z" fill="#06345C"/>
<path d="M506.144 26.0208C494.403 26.0208 484.565 30.1461 477.267 38.3967C469.968 46.6474 466.16 57.4367 466.16 71.082C466.16 84.0926 469.968 94.8819 477.267 102.815C484.565 110.749 494.403 114.874 506.461 114.874C515.347 114.874 522.645 112.97 528.675 109.162C534.387 105.354 539.464 99.3246 543.589 91.3912L534.387 86.3139C531.213 92.6606 527.405 97.7379 522.963 100.911C518.203 104.402 512.491 105.989 506.461 105.989C497.576 105.989 490.595 102.815 485.517 96.4686C480.44 90.1219 477.584 81.5539 477.267 70.7646V69.8126H543.589V68.226C543.589 55.5327 540.099 45.378 533.435 37.7621C526.453 29.8287 517.251 26.0208 506.144 26.0208ZM477.901 61.2447V60.2927C478.536 52.994 481.392 46.9647 486.469 42.2047C491.229 37.7621 497.576 35.5407 504.557 35.5407C512.491 35.5407 518.837 37.7621 523.28 42.2047C528.04 46.6474 530.579 52.6767 531.213 60.61V61.562H477.901V61.2447Z" fill="#06345C"/>
<path d="M655.924 29.1941L633.711 90.7566L607.69 26.0208L581.351 90.7566L559.138 29.1941H548.666L580.717 114.874L607.69 48.5514L634.346 114.874L666.396 29.1941H655.924Z" fill="#06345C"/>
<path d="M679.725 110.115C684.802 113.288 690.832 114.875 697.496 114.875C706.381 114.875 713.68 112.654 719.074 108.211C724.469 103.768 727.008 97.739 727.008 90.4404C727.008 84.0937 725.421 79.0164 722.565 75.2084C719.392 71.7177 713.362 68.2271 704.477 65.0538C696.226 62.1978 690.832 59.9764 688.293 57.4378C685.437 54.8991 684.168 52.0431 684.168 48.2351C684.168 44.4271 685.437 41.2538 688.293 38.7152C691.149 36.1765 694.64 34.9072 698.765 34.9072C703.208 34.9072 707.333 35.8592 710.506 38.0805C713.362 39.9845 715.584 42.8405 717.17 46.6485L726.373 41.5712C724.151 36.4938 720.978 32.6858 716.536 30.1472C711.776 27.2912 706.381 25.7045 699.717 25.7045C692.101 25.7045 685.754 27.9259 680.677 32.3685C675.917 36.8112 673.378 42.5232 673.378 49.1871C673.378 54.2645 674.965 58.7071 678.456 62.1978C681.946 65.6884 687.976 69.1791 696.544 72.6697C697.178 72.9871 698.13 73.3044 699.4 73.9391C711.141 78.3817 716.853 84.0937 716.853 91.075C716.853 95.5177 715.266 99.0083 712.093 101.547C708.92 104.086 705.112 105.355 700.034 105.355C694.957 105.355 690.514 104.086 687.024 101.547C683.533 99.3257 680.994 95.835 679.09 91.3924L669.57 96.787C671.157 102.816 674.965 106.942 679.725 110.115Z" fill="#06345C"/>
</svg>
